<?xml version="1.0" encoding="utf-8"?>
<!-- Svg Vector Icons : http://www.onlinewebfonts.com/icon -->
<!DOCTYPE svg PUBLIC "-//W3C//DTD SVG 1.1//EN" "http://www.w3.org/Graphics/SVG/1.1/DTD/svg11.dtd">
<svg version="1.1" xmlns="http://www.w3.org/2000/svg" xmlns:xlink="http://www.w3.org/1999/xlink" x="0px" y="0px" viewBox="0 0 256 256" enable-background="new 0 0 256 256" xml:space="preserve">
<metadata> Svg Vector Icons : http://www.onlinewebfonts.com/icon </metadata>
<g><g><path fill="#000000" d="M39.5,135.4L39.5,135.4C39.6,131.5,39.6,130.9,39.5,135.4z M246,90.7l-29.5-73.3H39.5L10.1,90.7c0,0-2.5,39.9,27.7,39.9c24.5,0,27.8-35.8,28.1-49.5c-0.1-3.2,0-5.2,0-5.2s0.1,2,0,5.2c0.4,13.6,3.9,49.5,31.2,49.5c26.2,0,30.3-33,30.8-47.7c-0.1-4.2,0-6.9,0-6.9s0.1,2.7,0,6.9c0.5,14.7,4.1,47.7,28.1,47.7c24.2,0,27.5-33.5,27.8-48c-0.2-4,0-6.6,0-6.6s0.1,2.6,0,6.6c0.6,14.5,4.9,48,31,48C248.3,130.6,246,90.7,246,90.7z M187.1,120.6v88.5c14.5,0-0.9,0.1,0,0H69c0.9,0.1-14.6,0,0,0v-88.5l-29.4,14.7c0,16,0,88.5,0,88.5c0,14.9,6.5,14.7,21.1,14.7h134.7c14.5,0,21.1,0.1,21.1-14.7c0,0-0.1-72.5,0-88.5L187.1,120.6z M216.4,135.3L216.4,135.3C216.4,130.9,216.4,131.5,216.4,135.3z"/><path fill="#000000" d="M39.5,135.4L39.5,135.4C39.6,131.5,39.6,130.9,39.5,135.4z M246,90.7l-29.5-73.3H39.5L10.1,90.7c0,0-2.5,39.9,27.7,39.9c24.5,0,27.8-35.8,28.1-49.5c-0.1-3.2,0-5.2,0-5.2s0.1,2,0,5.2c0.4,13.6,3.9,49.5,31.2,49.5c26.2,0,30.3-33,30.8-47.7c-0.1-4.2,0-6.9,0-6.9s0.1,2.7,0,6.9c0.5,14.7,4.1,47.7,28.1,47.7c24.2,0,27.5-33.5,27.8-48c-0.2-4,0-6.6,0-6.6s0.1,2.6,0,6.6c0.6,14.5,4.9,48,31,48C248.3,130.6,246,90.7,246,90.7z M216.4,135.3L216.4,135.3C216.4,130.9,216.4,131.5,216.4,135.3z M187.1,120.6v88.5c14.5,0-0.9,0.1,0,0H69c0.9,0.1-14.6,0,0,0v-88.5l-29.4,14.7c0,16,0,88.5,0,88.5c0,14.9,6.5,14.7,21.1,14.7h134.7c14.5,0,21.1,0.1,21.1-14.7c0,0-0.1-72.5,0-88.5L187.1,120.6z"/><path fill="#000000" d="M126.6,125.9h2.8v4.5l-1.4-1.1l-1.4,1.1V125.9z"/></g></g>
</svg>