<?xml version="1.0" encoding="iso-8859-1"?>
<!-- Uploaded to: SVG Repo, www.svgrepo.com, Generator: SVG Repo Mixer Tools -->
<svg fill="#000000" height="800px" width="800px" version="1.1" id="Layer_1" xmlns="http://www.w3.org/2000/svg" xmlns:xlink="http://www.w3.org/1999/xlink" 
	 viewBox="0 0 458.722 458.722" xml:space="preserve">
<g id="XMLID_1234_">
	<g>
		<g>
			<path d="M40,91.321h196.648v25.31h40V72.478c0-25.398-20.663-46.061-46.061-46.061H46.061C20.663,26.417,0,47.08,0,72.478
				v313.766c0,25.398,20.663,46.061,46.061,46.061h184.526c25.398,0,46.061-20.663,46.061-46.061v-19.155L40,367.401V91.321z
				 M138.324,376.807c12.012,0,21.749,9.737,21.749,21.749c0,12.003-9.737,21.749-21.749,21.749
				c-12.014,0-21.749-9.747-21.749-21.749C116.575,386.545,126.312,376.807,138.324,376.807z"/>
			<path d="M438.193,136.631H151.908c-11.338,0-20.529,9.191-20.529,20.529v114.498h327.343V157.16
				C458.722,145.822,449.531,136.631,438.193,136.631z M243.886,215.512c0,6.6-5.4,12-12,12h-56.729c-6.6,0-12-5.4-12-12v-23.057
				c0-6.6,5.4-12,12-12h56.729c6.6,0,12,5.4,12,12V215.512z M353.827,232.658c-5.199,3.127-11.286,4.928-17.795,4.928
				c-19.101,0-34.585-15.484-34.585-34.585c0-19.101,15.484-34.585,34.585-34.585c6.93,0,13.379,2.046,18.79,5.556
				c-6.366,8.34-10.158,18.745-10.158,30.023C344.663,214.668,348.066,224.557,353.827,232.658z M394.249,238.579
				c-19.101,0-34.585-15.484-34.585-34.586c0-19.101,15.484-34.585,34.585-34.585s34.585,15.484,34.585,34.585
				C428.834,223.094,413.35,238.579,394.249,238.579z"/>
			<path d="M131.379,326.56c0,11.338,9.191,20.529,20.529,20.529h286.285c11.338,0,20.529-9.191,20.529-20.529v-6.512H131.379
				V326.56z"/>
		</g>
	</g>
</g>
</svg>