<?xml version="1.0" encoding="utf-8"?>
<!-- Svg Vector Icons : http://www.onlinewebfonts.com/icon -->
<!DOCTYPE svg PUBLIC "-//W3C//DTD SVG 1.1//EN" "http://www.w3.org/Graphics/SVG/1.1/DTD/svg11.dtd">
<svg version="1.1" xmlns="http://www.w3.org/2000/svg" xmlns:xlink="http://www.w3.org/1999/xlink" x="0px" y="0px" viewBox="0 0 256 256" enable-background="new 0 0 256 256" xml:space="preserve">
<metadata> Svg Vector Icons : http://www.onlinewebfonts.com/icon </metadata>
<g><g><g><path fill="#000000" d="M78,38.7C42.4,59.3,28.3,67.7,28.3,68.3c0,0.6,4.9,3.6,16.5,10.4c9.1,5.2,16.8,9.5,17.1,9.5c0.3,0,4-2.1,8.1-4.6c11.8-7.2,43.3-25.5,88.6-51.4c2.1-1.2,3.7-2.4,3.4-2.6c-0.5-0.4-33.9-19.7-34.1-19.7C127.8,10,105.4,22.9,78,38.7z"/><path fill="#000000" d="M162.2,37.8c-3.5,2.1-26,15.1-49.9,28.9C88.3,80.5,67.9,92.4,67.1,93l-1.6,1.2v18.4v18.3l7,4l7,4l0.2-18.5l0.2-18.5l16.7-9.7c9.2-5.3,32.4-18.7,51.6-29.8c19.1-11.1,34.8-20.2,34.8-20.4c0-0.4-13.1-7.9-13.9-7.9C168.8,34.1,165.7,35.8,162.2,37.8z"/><path fill="#000000" d="M184.5,49.3c-3.1,1.8-25.7,15-50.3,29.1c-34.5,19.9-44.5,25.9-44,26.3c0.3,0.3,9,5.4,19.2,11.3l18.6,10.7l49.8-28.7c35.1-20.3,49.8-29,49.8-29.6c0-0.6-5.7-4.1-18.6-11.6c-10.3-5.9-18.7-10.8-18.7-10.8C190.2,46,187.6,47.4,184.5,49.3z"/><path fill="#000000" d="M25.2,130.6l0.1,58.2l49.7,28.7c27.4,15.8,49.9,28.6,50.2,28.6c0.3-0.1,0.5-19.9,0.5-58.1v-58l-19.4-11.2l-19.4-11.2l-0.1,21.6c0,11.9-0.3,21.5-0.5,21.4c-0.8-0.3-25-14.3-26.2-15.2l-1.2-0.8l-0.2-21.8l-0.2-21.7l-16-9.3c-8.8-5.1-16.3-9.3-16.6-9.3C25.2,72.5,25.1,84.2,25.2,130.6z"/><path fill="#000000" d="M182.3,99.8c-26,15-48.4,27.9-49.8,28.7l-2.6,1.5l0.1,58c0.1,53.1,0.2,57.9,0.9,57.9c0.6-0.1,66-37.5,95.3-54.7l4.5-2.7v-58c0-46.1-0.1-58.1-0.6-58.1C229.9,72.5,208.3,84.8,182.3,99.8z"/></g></g></g>
</svg>