<?xml version="1.0" encoding="utf-8"?>
<!-- Svg Vector Icons : http://www.onlinewebfonts.com/icon -->
<!DOCTYPE svg PUBLIC "-//W3C//DTD SVG 1.1//EN" "http://www.w3.org/Graphics/SVG/1.1/DTD/svg11.dtd">
<svg version="1.1" xmlns="http://www.w3.org/2000/svg" xmlns:xlink="http://www.w3.org/1999/xlink" x="0px" y="0px" viewBox="0 0 256 256" enable-background="new 0 0 256 256" xml:space="preserve">
<metadata> Svg Vector Icons : http://www.onlinewebfonts.com/icon </metadata>
<g><g><path fill="#000000" d="M246,187.2h-45.8c0-49.8-24.9-26.2-24.9-69.8c0-15.8,10.3-24.3,23.6-24.3c19.6,0,33.2,18.7,14.7,53.7c-6.1,11.5,6.5,14.2,20,17.3C247,167.1,246,174.3,246,187.2z M22.5,164c13.5-3.1,26.1-5.9,20-17.3C23.9,111.7,37.5,93,57.1,93c13.2,0,23.6,8.5,23.6,24.3c0,43.7-24.9,20-24.9,69.8H10C10,174.3,9,167.1,22.5,164z M171.6,158.1c-17-3.9-32.8-7.3-25.2-21.8c23.3-44,6.2-67.5-18.4-67.5c-25.1,0-41.8,24.4-18.4,67.5c7.9,14.5-8.5,18-25.2,21.8c-17,3.9-15.7,12.9-15.7,29.1h118.6C187.3,171,188.6,162,171.6,158.1z"/></g></g>
</svg>